<svg xmlns="http://www.w3.org/2000/svg" xmlns:xlink="http://www.w3.org/1999/xlink" width="500" zoomAndPan="magnify" viewBox="0 0 375 374.999991" height="500" preserveAspectRatio="xMidYMid meet" version="1.0"><defs><g/></defs><g fill="#000000" fill-opacity="1"><g transform="translate(93.283761, 201.374987)"><g><path d="M 3.078125 0 L 3.078125 -26.265625 L 12.140625 -26.265625 L 12.140625 -23.5 L 12.234375 -23.5 C 14.585938 -25.851562 17.097656 -27.03125 19.765625 -27.03125 C 21.054688 -27.03125 22.34375 -26.859375 23.625 -26.515625 C 24.90625 -26.179688 26.132812 -25.65625 27.3125 -24.9375 C 28.488281 -24.21875 29.441406 -23.203125 30.171875 -21.890625 C 30.910156 -20.578125 31.28125 -19.050781 31.28125 -17.3125 L 31.28125 0 L 22.21875 0 L 22.21875 -14.84375 C 22.21875 -16.207031 21.78125 -17.398438 20.90625 -18.421875 C 20.039062 -19.453125 18.910156 -19.96875 17.515625 -19.96875 C 16.148438 -19.96875 14.910156 -19.4375 13.796875 -18.375 C 12.691406 -17.320312 12.140625 -16.144531 12.140625 -14.84375 L 12.140625 0 Z M 3.078125 0 "/></g></g></g><g fill="#000000" fill-opacity="1"><g transform="translate(122.312332, 201.374987)"><g><path d="M 5.546875 -3.125 C 2.628906 -5.71875 1.171875 -9.046875 1.171875 -13.109375 C 1.171875 -17.171875 2.691406 -20.503906 5.734375 -23.109375 C 8.773438 -25.722656 12.53125 -27.03125 17 -27.03125 C 21.40625 -27.03125 25.117188 -25.71875 28.140625 -23.09375 C 31.160156 -20.46875 32.671875 -17.140625 32.671875 -13.109375 C 32.671875 -9.078125 31.191406 -5.753906 28.234375 -3.140625 C 25.285156 -0.535156 21.539062 0.765625 17 0.765625 C 12.289062 0.765625 8.472656 -0.53125 5.546875 -3.125 Z M 12.5625 -17.5625 C 11.382812 -16.40625 10.796875 -14.921875 10.796875 -13.109375 C 10.796875 -11.296875 11.359375 -9.816406 12.484375 -8.671875 C 13.617188 -7.535156 15.109375 -6.96875 16.953125 -6.96875 C 18.722656 -6.96875 20.179688 -7.546875 21.328125 -8.703125 C 22.472656 -9.867188 23.046875 -11.335938 23.046875 -13.109375 C 23.046875 -14.921875 22.457031 -16.40625 21.28125 -17.5625 C 20.101562 -18.71875 18.660156 -19.296875 16.953125 -19.296875 C 15.210938 -19.296875 13.75 -18.71875 12.5625 -17.5625 Z M 12.5625 -17.5625 "/></g></g></g><g fill="#000000" fill-opacity="1"><g transform="translate(151.340904, 201.374987)"><g><path d="M 29.640625 -11.875 L 10.59375 -11.875 C 10.59375 -10.03125 11.191406 -8.664062 12.390625 -7.78125 C 13.585938 -6.894531 14.882812 -6.453125 16.28125 -6.453125 C 17.75 -6.453125 18.910156 -6.644531 19.765625 -7.03125 C 20.617188 -7.425781 21.59375 -8.207031 22.6875 -9.375 L 29.234375 -6.09375 C 26.503906 -1.519531 21.960938 0.765625 15.609375 0.765625 C 11.648438 0.765625 8.253906 -0.585938 5.421875 -3.296875 C 2.585938 -6.015625 1.171875 -9.285156 1.171875 -13.109375 C 1.171875 -16.929688 2.585938 -20.207031 5.421875 -22.9375 C 8.253906 -25.664062 11.648438 -27.03125 15.609375 -27.03125 C 19.773438 -27.03125 23.164062 -25.828125 25.78125 -23.421875 C 28.394531 -21.015625 29.703125 -17.578125 29.703125 -13.109375 C 29.703125 -12.492188 29.679688 -12.082031 29.640625 -11.875 Z M 10.859375 -16.890625 L 20.84375 -16.890625 C 20.632812 -18.253906 20.09375 -19.300781 19.21875 -20.03125 C 18.351562 -20.769531 17.238281 -21.140625 15.875 -21.140625 C 14.375 -21.140625 13.175781 -20.75 12.28125 -19.96875 C 11.394531 -19.1875 10.921875 -18.160156 10.859375 -16.890625 Z M 10.859375 -16.890625 "/></g></g></g><g fill="#000000" fill-opacity="1"><g transform="translate(177.399918, 201.374987)"><g><path d="M 3.078125 0 L 3.078125 -26.265625 L 12.140625 -26.265625 L 12.140625 -23.5 L 12.234375 -23.5 C 14.585938 -25.851562 17.097656 -27.03125 19.765625 -27.03125 C 21.671875 -27.03125 23.460938 -26.640625 25.140625 -25.859375 C 26.816406 -25.078125 28.082031 -23.863281 28.9375 -22.21875 C 31.59375 -25.425781 34.492188 -27.03125 37.640625 -27.03125 C 40.429688 -27.03125 42.832031 -26.242188 44.84375 -24.671875 C 46.863281 -23.109375 47.875 -20.65625 47.875 -17.3125 L 47.875 0 L 38.8125 0 L 38.8125 -14.84375 C 38.8125 -16.25 38.425781 -17.421875 37.65625 -18.359375 C 36.882812 -19.296875 35.734375 -19.765625 34.203125 -19.765625 C 32.867188 -19.765625 31.851562 -19.363281 31.15625 -18.5625 C 30.457031 -17.757812 30.070312 -16.796875 30 -15.671875 L 30 0 L 20.9375 0 L 20.9375 -14.84375 C 20.9375 -16.25 20.550781 -17.421875 19.78125 -18.359375 C 19.019531 -19.296875 17.867188 -19.765625 16.328125 -19.765625 C 14.929688 -19.765625 13.882812 -19.328125 13.1875 -18.453125 C 12.488281 -17.585938 12.140625 -16.554688 12.140625 -15.359375 L 12.140625 0 Z M 3.078125 0 "/></g></g></g><g fill="#000000" fill-opacity="1"><g transform="translate(223.017044, 201.374987)"><g><path d="M 3.9375 -40.90625 C 5 -41.96875 6.265625 -42.5 7.734375 -42.5 C 9.203125 -42.5 10.460938 -41.96875 11.515625 -40.90625 C 12.578125 -39.851562 13.109375 -38.59375 13.109375 -37.125 C 13.109375 -35.65625 12.578125 -34.390625 11.515625 -33.328125 C 10.460938 -32.273438 9.203125 -31.75 7.734375 -31.75 C 6.265625 -31.75 5 -32.273438 3.9375 -33.328125 C 2.882812 -34.390625 2.359375 -35.65625 2.359375 -37.125 C 2.359375 -38.59375 2.882812 -39.851562 3.9375 -40.90625 Z M 3.078125 -26.265625 L 3.078125 0 L 12.140625 0 L 12.140625 -26.265625 Z M 3.078125 -26.265625 "/></g></g></g><g fill="#000000" fill-opacity="1"><g transform="translate(233.665084, 201.374987)"><g><path d="M 30.109375 -23.015625 C 32.566406 -20.335938 33.796875 -17.050781 33.796875 -13.15625 C 33.796875 -9.269531 32.566406 -5.976562 30.109375 -3.28125 C 27.648438 -0.582031 24.523438 0.765625 20.734375 0.765625 C 17.253906 0.765625 14.390625 -0.328125 12.140625 -2.515625 L 12.140625 13.3125 L 3.078125 13.3125 L 3.078125 -26.265625 L 12.03125 -26.265625 L 12.03125 -23.296875 L 12.140625 -23.296875 C 14.390625 -25.785156 17.253906 -27.03125 20.734375 -27.03125 C 24.523438 -27.03125 27.648438 -25.691406 30.109375 -23.015625 Z M 22.40625 -8.703125 C 23.582031 -9.867188 24.171875 -11.351562 24.171875 -13.15625 C 24.171875 -14.96875 23.601562 -16.441406 22.46875 -17.578125 C 21.34375 -18.722656 19.863281 -19.296875 18.03125 -19.296875 C 16.25 -19.296875 14.785156 -18.71875 13.640625 -17.5625 C 12.503906 -16.40625 11.9375 -14.9375 11.9375 -13.15625 C 11.9375 -11.351562 12.523438 -9.867188 13.703125 -8.703125 C 14.878906 -7.546875 16.320312 -6.96875 18.03125 -6.96875 C 19.769531 -6.96875 21.226562 -7.546875 22.40625 -8.703125 Z M 22.40625 -8.703125 "/></g></g></g><g fill="#000000" fill-opacity="1"><g transform="translate(263.820035, 201.374987)"><g><path d="M 8.90625 -10.953125 C 10.539062 -10.953125 11.929688 -10.378906 13.078125 -9.234375 C 14.222656 -8.097656 14.796875 -6.707031 14.796875 -5.0625 C 14.796875 -3.457031 14.222656 -2.082031 13.078125 -0.9375 C 11.929688 0.195312 10.539062 0.765625 8.90625 0.765625 C 7.300781 0.765625 5.925781 0.195312 4.78125 -0.9375 C 3.644531 -2.082031 3.078125 -3.457031 3.078125 -5.0625 C 3.078125 -6.707031 3.644531 -8.097656 4.78125 -9.234375 C 5.925781 -10.378906 7.300781 -10.953125 8.90625 -10.953125 Z M 8.90625 -10.953125 "/></g></g></g><g fill="#000000" fill-opacity="1"><g transform="translate(96.200881, 213.53426)"><g><path d="M 4.609375 -5.234375 C 4.742188 -5.234375 4.859375 -5.1875 4.953125 -5.09375 C 5.046875 -5 5.09375 -4.890625 5.09375 -4.765625 L 5.09375 -2.09375 C 5.09375 -1.40625 4.898438 -0.867188 4.515625 -0.484375 C 4.128906 -0.0976562 3.585938 0.09375 2.890625 0.09375 C 2.191406 0.09375 1.648438 -0.0976562 1.265625 -0.484375 C 0.890625 -0.867188 0.703125 -1.40625 0.703125 -2.09375 L 0.703125 -4.765625 C 0.703125 -4.890625 0.75 -5 0.84375 -5.09375 C 0.9375 -5.1875 1.050781 -5.234375 1.1875 -5.234375 C 1.320312 -5.234375 1.429688 -5.1875 1.515625 -5.09375 C 1.609375 -5 1.65625 -4.890625 1.65625 -4.765625 L 1.65625 -2.09375 C 1.65625 -1.226562 2.066406 -0.796875 2.890625 -0.796875 C 3.296875 -0.796875 3.601562 -0.90625 3.8125 -1.125 C 4.03125 -1.34375 4.140625 -1.664062 4.140625 -2.09375 L 4.140625 -4.765625 C 4.140625 -4.890625 4.179688 -5 4.265625 -5.09375 C 4.359375 -5.1875 4.472656 -5.234375 4.609375 -5.234375 Z M 4.609375 -5.234375 "/></g></g></g><g fill="#000000" fill-opacity="1"><g transform="translate(107.088581, 213.53426)"><g><path d="M 4.515625 -0.734375 C 4.585938 -0.660156 4.625 -0.566406 4.625 -0.453125 C 4.625 -0.328125 4.570312 -0.210938 4.46875 -0.109375 C 4.375 -0.015625 4.269531 0.03125 4.15625 0.03125 C 4 0.03125 3.867188 -0.0390625 3.765625 -0.1875 L 2.421875 -1.875 L 1.09375 -0.1875 C 1.050781 -0.113281 0.992188 -0.0625 0.921875 -0.03125 C 0.859375 0 0.789062 0.015625 0.71875 0.015625 C 0.601562 0.015625 0.5 -0.0234375 0.40625 -0.109375 C 0.3125 -0.191406 0.265625 -0.289062 0.265625 -0.40625 C 0.265625 -0.519531 0.300781 -0.617188 0.375 -0.703125 L 1.875 -2.5625 L 0.328125 -4.515625 C 0.265625 -4.597656 0.234375 -4.691406 0.234375 -4.796875 C 0.234375 -4.921875 0.28125 -5.03125 0.375 -5.125 C 0.46875 -5.21875 0.578125 -5.265625 0.703125 -5.265625 C 0.867188 -5.265625 1 -5.195312 1.09375 -5.0625 L 2.46875 -3.34375 L 3.765625 -5.0625 C 3.859375 -5.195312 3.984375 -5.265625 4.140625 -5.265625 C 4.265625 -5.265625 4.367188 -5.222656 4.453125 -5.140625 C 4.546875 -5.054688 4.59375 -4.957031 4.59375 -4.84375 C 4.59375 -4.71875 4.554688 -4.617188 4.484375 -4.546875 L 3 -2.671875 Z M 4.515625 -0.734375 "/></g></g></g><g fill="#000000" fill-opacity="1"><g transform="translate(117.036654, 213.53426)"><g><path d="M 0.640625 1.3125 C 0.535156 1.3125 0.4375 1.269531 0.34375 1.1875 C 0.25 1.113281 0.203125 1.019531 0.203125 0.90625 C 0.203125 0.851562 0.222656 0.785156 0.265625 0.703125 L 4.453125 -7.734375 C 4.546875 -7.910156 4.675781 -8 4.84375 -8 C 4.9375 -8 5.023438 -7.957031 5.109375 -7.875 C 5.203125 -7.800781 5.25 -7.707031 5.25 -7.59375 C 5.25 -7.519531 5.234375 -7.445312 5.203125 -7.375 L 1.015625 1.0625 C 0.941406 1.226562 0.816406 1.3125 0.640625 1.3125 Z M 0.640625 1.3125 "/></g></g></g><g fill="#000000" fill-opacity="1"><g transform="translate(127.61447, 213.53426)"><g><path d="M 4.609375 -5.234375 C 4.742188 -5.234375 4.859375 -5.1875 4.953125 -5.09375 C 5.046875 -5 5.09375 -4.890625 5.09375 -4.765625 L 5.09375 -2.09375 C 5.09375 -1.40625 4.898438 -0.867188 4.515625 -0.484375 C 4.128906 -0.0976562 3.585938 0.09375 2.890625 0.09375 C 2.191406 0.09375 1.648438 -0.0976562 1.265625 -0.484375 C 0.890625 -0.867188 0.703125 -1.40625 0.703125 -2.09375 L 0.703125 -4.765625 C 0.703125 -4.890625 0.75 -5 0.84375 -5.09375 C 0.9375 -5.1875 1.050781 -5.234375 1.1875 -5.234375 C 1.320312 -5.234375 1.429688 -5.1875 1.515625 -5.09375 C 1.609375 -5 1.65625 -4.890625 1.65625 -4.765625 L 1.65625 -2.09375 C 1.65625 -1.226562 2.066406 -0.796875 2.890625 -0.796875 C 3.296875 -0.796875 3.601562 -0.90625 3.8125 -1.125 C 4.03125 -1.34375 4.140625 -1.664062 4.140625 -2.09375 L 4.140625 -4.765625 C 4.140625 -4.890625 4.179688 -5 4.265625 -5.09375 C 4.359375 -5.1875 4.472656 -5.234375 4.609375 -5.234375 Z M 4.609375 -5.234375 "/></g></g></g><g fill="#000000" fill-opacity="1"><g transform="translate(138.502172, 213.53426)"><g><path d="M 1.609375 -0.484375 C 1.609375 -0.347656 1.5625 -0.234375 1.46875 -0.140625 C 1.382812 -0.046875 1.269531 0 1.125 0 C 1 0 0.890625 -0.046875 0.796875 -0.140625 C 0.703125 -0.234375 0.65625 -0.347656 0.65625 -0.484375 L 0.65625 -4.8125 C 0.65625 -4.945312 0.703125 -5.0625 0.796875 -5.15625 C 0.890625 -5.25 1 -5.296875 1.125 -5.296875 C 1.269531 -5.296875 1.382812 -5.25 1.46875 -5.15625 C 1.5625 -5.0625 1.609375 -4.945312 1.609375 -4.8125 Z M 1.125 -5.953125 C 0.9375 -5.953125 0.800781 -5.984375 0.71875 -6.046875 C 0.632812 -6.117188 0.59375 -6.234375 0.59375 -6.390625 L 0.59375 -6.546875 C 0.59375 -6.710938 0.632812 -6.828125 0.71875 -6.890625 C 0.8125 -6.953125 0.953125 -6.984375 1.140625 -6.984375 C 1.328125 -6.984375 1.460938 -6.945312 1.546875 -6.875 C 1.628906 -6.8125 1.671875 -6.703125 1.671875 -6.546875 L 1.671875 -6.390625 C 1.671875 -6.234375 1.625 -6.117188 1.53125 -6.046875 C 1.445312 -5.984375 1.3125 -5.953125 1.125 -5.953125 Z M 1.125 -5.953125 "/></g></g></g><g fill="#000000" fill-opacity="1"><g transform="translate(145.861261, 213.53426)"><g/></g></g><g fill="#000000" fill-opacity="1"><g transform="translate(153.720158, 213.53426)"><g><path d="M 4.953125 -7.40625 C 5.097656 -7.40625 5.210938 -7.359375 5.296875 -7.265625 C 5.390625 -7.171875 5.4375 -7.054688 5.4375 -6.921875 L 5.4375 -0.484375 C 5.4375 -0.347656 5.390625 -0.234375 5.296875 -0.140625 C 5.210938 -0.046875 5.097656 0 4.953125 0 C 4.816406 0 4.703125 -0.0390625 4.609375 -0.125 C 4.523438 -0.21875 4.484375 -0.335938 4.484375 -0.484375 L 4.484375 -0.765625 C 4.316406 -0.523438 4.082031 -0.320312 3.78125 -0.15625 C 3.476562 0.0078125 3.15625 0.09375 2.8125 0.09375 C 2.351562 0.09375 1.941406 -0.0195312 1.578125 -0.25 C 1.210938 -0.476562 0.921875 -0.800781 0.703125 -1.21875 C 0.492188 -1.632812 0.390625 -2.101562 0.390625 -2.625 C 0.390625 -3.144531 0.492188 -3.613281 0.703125 -4.03125 C 0.910156 -4.445312 1.195312 -4.769531 1.5625 -5 C 1.9375 -5.238281 2.34375 -5.359375 2.78125 -5.359375 C 3.132812 -5.359375 3.457031 -5.285156 3.75 -5.140625 C 4.050781 -4.992188 4.296875 -4.800781 4.484375 -4.5625 L 4.484375 -6.921875 C 4.484375 -7.054688 4.523438 -7.171875 4.609375 -7.265625 C 4.703125 -7.359375 4.816406 -7.40625 4.953125 -7.40625 Z M 2.921875 -0.78125 C 3.234375 -0.78125 3.507812 -0.859375 3.75 -1.015625 C 4 -1.179688 4.191406 -1.398438 4.328125 -1.671875 C 4.460938 -1.953125 4.53125 -2.269531 4.53125 -2.625 C 4.53125 -2.976562 4.460938 -3.296875 4.328125 -3.578125 C 4.191406 -3.859375 4 -4.078125 3.75 -4.234375 C 3.507812 -4.398438 3.234375 -4.484375 2.921875 -4.484375 C 2.609375 -4.484375 2.328125 -4.398438 2.078125 -4.234375 C 1.835938 -4.078125 1.648438 -3.859375 1.515625 -3.578125 C 1.378906 -3.296875 1.3125 -2.976562 1.3125 -2.625 C 1.3125 -2.269531 1.378906 -1.953125 1.515625 -1.671875 C 1.648438 -1.398438 1.835938 -1.179688 2.078125 -1.015625 C 2.328125 -0.859375 2.609375 -0.78125 2.921875 -0.78125 Z M 2.921875 -0.78125 "/></g></g></g><g fill="#000000" fill-opacity="1"><g transform="translate(164.947727, 213.53426)"><g><path d="M 5.3125 -2.8125 C 5.300781 -2.695312 5.25 -2.597656 5.15625 -2.515625 C 5.0625 -2.429688 4.953125 -2.390625 4.828125 -2.390625 L 1.3125 -2.390625 C 1.351562 -1.898438 1.535156 -1.507812 1.859375 -1.21875 C 2.179688 -0.925781 2.578125 -0.78125 3.046875 -0.78125 C 3.367188 -0.78125 3.628906 -0.828125 3.828125 -0.921875 C 4.023438 -1.015625 4.203125 -1.132812 4.359375 -1.28125 C 4.460938 -1.34375 4.5625 -1.375 4.65625 -1.375 C 4.757812 -1.375 4.847656 -1.332031 4.921875 -1.25 C 5.003906 -1.164062 5.046875 -1.070312 5.046875 -0.96875 C 5.046875 -0.832031 4.976562 -0.707031 4.84375 -0.59375 C 4.65625 -0.394531 4.398438 -0.226562 4.078125 -0.09375 C 3.753906 0.03125 3.425781 0.09375 3.09375 0.09375 C 2.5625 0.09375 2.085938 -0.015625 1.671875 -0.234375 C 1.265625 -0.460938 0.945312 -0.78125 0.71875 -1.1875 C 0.5 -1.59375 0.390625 -2.050781 0.390625 -2.5625 C 0.390625 -3.125 0.503906 -3.617188 0.734375 -4.046875 C 0.960938 -4.472656 1.265625 -4.796875 1.640625 -5.015625 C 2.015625 -5.242188 2.421875 -5.359375 2.859375 -5.359375 C 3.285156 -5.359375 3.6875 -5.25 4.0625 -5.03125 C 4.4375 -4.8125 4.734375 -4.507812 4.953125 -4.125 C 5.179688 -3.738281 5.300781 -3.300781 5.3125 -2.8125 Z M 2.859375 -4.484375 C 2.484375 -4.484375 2.160156 -4.375 1.890625 -4.15625 C 1.617188 -3.945312 1.4375 -3.625 1.34375 -3.1875 L 4.296875 -3.1875 L 4.296875 -3.265625 C 4.265625 -3.617188 4.109375 -3.910156 3.828125 -4.140625 C 3.546875 -4.367188 3.222656 -4.484375 2.859375 -4.484375 Z M 2.859375 -4.484375 "/></g></g></g><g fill="#000000" fill-opacity="1"><g transform="translate(175.735465, 213.53426)"><g><path d="M 0.40625 -0.8125 C 0.34375 -0.90625 0.3125 -1 0.3125 -1.09375 C 0.3125 -1.226562 0.382812 -1.34375 0.53125 -1.4375 C 0.59375 -1.476562 0.671875 -1.5 0.765625 -1.5 C 0.878906 -1.5 0.988281 -1.445312 1.09375 -1.34375 C 1.289062 -1.125 1.503906 -0.957031 1.734375 -0.84375 C 1.960938 -0.726562 2.238281 -0.671875 2.5625 -0.671875 C 2.8125 -0.679688 3.03125 -0.738281 3.21875 -0.84375 C 3.414062 -0.957031 3.515625 -1.132812 3.515625 -1.375 C 3.515625 -1.601562 3.414062 -1.773438 3.21875 -1.890625 C 3.03125 -2.015625 2.742188 -2.128906 2.359375 -2.234375 C 1.984375 -2.328125 1.671875 -2.425781 1.421875 -2.53125 C 1.179688 -2.644531 0.972656 -2.804688 0.796875 -3.015625 C 0.628906 -3.234375 0.546875 -3.507812 0.546875 -3.84375 C 0.546875 -4.144531 0.628906 -4.410156 0.796875 -4.640625 C 0.972656 -4.867188 1.203125 -5.046875 1.484375 -5.171875 C 1.765625 -5.296875 2.070312 -5.359375 2.40625 -5.359375 C 2.726562 -5.359375 3.046875 -5.296875 3.359375 -5.171875 C 3.679688 -5.054688 3.941406 -4.875 4.140625 -4.625 C 4.222656 -4.53125 4.265625 -4.4375 4.265625 -4.34375 C 4.265625 -4.238281 4.207031 -4.132812 4.09375 -4.03125 C 4.03125 -3.96875 3.945312 -3.9375 3.84375 -3.9375 C 3.726562 -3.9375 3.632812 -3.976562 3.5625 -4.0625 C 3.414062 -4.21875 3.238281 -4.335938 3.03125 -4.421875 C 2.832031 -4.515625 2.613281 -4.5625 2.375 -4.5625 C 2.113281 -4.5625 1.894531 -4.507812 1.71875 -4.40625 C 1.539062 -4.300781 1.453125 -4.125 1.453125 -3.875 C 1.460938 -3.644531 1.566406 -3.472656 1.765625 -3.359375 C 1.960938 -3.242188 2.265625 -3.132812 2.671875 -3.03125 C 3.023438 -2.9375 3.316406 -2.832031 3.546875 -2.71875 C 3.785156 -2.613281 3.984375 -2.457031 4.140625 -2.25 C 4.296875 -2.039062 4.375 -1.769531 4.375 -1.4375 C 4.375 -1.113281 4.285156 -0.835938 4.109375 -0.609375 C 3.929688 -0.378906 3.695312 -0.203125 3.40625 -0.078125 C 3.113281 0.0351562 2.804688 0.09375 2.484375 0.09375 C 2.054688 0.09375 1.664062 0.0195312 1.3125 -0.125 C 0.957031 -0.269531 0.65625 -0.5 0.40625 -0.8125 Z M 0.40625 -0.8125 "/></g></g></g><g fill="#000000" fill-opacity="1"><g transform="translate(185.593577, 213.53426)"><g><path d="M 1.609375 -0.484375 C 1.609375 -0.347656 1.5625 -0.234375 1.46875 -0.140625 C 1.382812 -0.046875 1.269531 0 1.125 0 C 1 0 0.890625 -0.046875 0.796875 -0.140625 C 0.703125 -0.234375 0.65625 -0.347656 0.65625 -0.484375 L 0.65625 -4.8125 C 0.65625 -4.945312 0.703125 -5.0625 0.796875 -5.15625 C 0.890625 -5.25 1 -5.296875 1.125 -5.296875 C 1.269531 -5.296875 1.382812 -5.25 1.46875 -5.15625 C 1.5625 -5.0625 1.609375 -4.945312 1.609375 -4.8125 Z M 1.125 -5.953125 C 0.9375 -5.953125 0.800781 -5.984375 0.71875 -6.046875 C 0.632812 -6.117188 0.59375 -6.234375 0.59375 -6.390625 L 0.59375 -6.546875 C 0.59375 -6.710938 0.632812 -6.828125 0.71875 -6.890625 C 0.8125 -6.953125 0.953125 -6.984375 1.140625 -6.984375 C 1.328125 -6.984375 1.460938 -6.945312 1.546875 -6.875 C 1.628906 -6.8125 1.671875 -6.703125 1.671875 -6.546875 L 1.671875 -6.390625 C 1.671875 -6.234375 1.625 -6.117188 1.53125 -6.046875 C 1.445312 -5.984375 1.3125 -5.953125 1.125 -5.953125 Z M 1.125 -5.953125 "/></g></g></g><g fill="#000000" fill-opacity="1"><g transform="translate(192.95266, 213.53426)"><g><path d="M 5.09375 -5.3125 C 5.226562 -5.3125 5.335938 -5.265625 5.421875 -5.171875 C 5.515625 -5.085938 5.5625 -4.96875 5.5625 -4.8125 L 5.5625 -0.421875 C 5.5625 0.117188 5.445312 0.570312 5.21875 0.9375 C 4.988281 1.300781 4.675781 1.566406 4.28125 1.734375 C 3.894531 1.910156 3.453125 2 2.953125 2 C 2.691406 2 2.378906 1.953125 2.015625 1.859375 C 1.660156 1.765625 1.4375 1.664062 1.34375 1.5625 C 1.132812 1.457031 1.03125 1.328125 1.03125 1.171875 C 1.03125 1.128906 1.039062 1.078125 1.0625 1.015625 C 1.144531 0.847656 1.269531 0.765625 1.4375 0.765625 C 1.519531 0.765625 1.613281 0.78125 1.71875 0.8125 C 2.25 1.019531 2.664062 1.125 2.96875 1.125 C 3.5 1.125 3.90625 0.992188 4.1875 0.734375 C 4.476562 0.484375 4.625 0.132812 4.625 -0.3125 L 4.625 -0.84375 C 4.476562 -0.582031 4.238281 -0.359375 3.90625 -0.171875 C 3.582031 0.00390625 3.238281 0.09375 2.875 0.09375 C 2.414062 0.09375 1.992188 -0.0195312 1.609375 -0.25 C 1.234375 -0.476562 0.9375 -0.800781 0.71875 -1.21875 C 0.5 -1.632812 0.390625 -2.101562 0.390625 -2.625 C 0.390625 -3.144531 0.5 -3.613281 0.71875 -4.03125 C 0.9375 -4.445312 1.234375 -4.769531 1.609375 -5 C 1.984375 -5.238281 2.394531 -5.359375 2.84375 -5.359375 C 3.21875 -5.359375 3.5625 -5.273438 3.875 -5.109375 C 4.1875 -4.941406 4.4375 -4.738281 4.625 -4.5 L 4.625 -4.8125 C 4.625 -4.957031 4.664062 -5.078125 4.75 -5.171875 C 4.832031 -5.265625 4.945312 -5.3125 5.09375 -5.3125 Z M 2.984375 -0.78125 C 3.304688 -0.78125 3.59375 -0.859375 3.84375 -1.015625 C 4.101562 -1.171875 4.300781 -1.390625 4.4375 -1.671875 C 4.582031 -1.953125 4.65625 -2.269531 4.65625 -2.625 C 4.65625 -2.976562 4.582031 -3.296875 4.4375 -3.578125 C 4.300781 -3.859375 4.101562 -4.078125 3.84375 -4.234375 C 3.59375 -4.398438 3.304688 -4.484375 2.984375 -4.484375 C 2.660156 -4.484375 2.367188 -4.398438 2.109375 -4.234375 C 1.859375 -4.078125 1.660156 -3.859375 1.515625 -3.578125 C 1.378906 -3.296875 1.3125 -2.976562 1.3125 -2.625 C 1.3125 -2.28125 1.378906 -1.96875 1.515625 -1.6875 C 1.660156 -1.40625 1.859375 -1.179688 2.109375 -1.015625 C 2.367188 -0.859375 2.660156 -0.78125 2.984375 -0.78125 Z M 2.984375 -0.78125 "/></g></g></g><g fill="#000000" fill-opacity="1"><g transform="translate(204.310176, 213.53426)"><g><path d="M 3.375 -5.359375 C 4.582031 -5.359375 5.1875 -4.640625 5.1875 -3.203125 L 5.1875 -0.484375 C 5.1875 -0.347656 5.140625 -0.234375 5.046875 -0.140625 C 4.953125 -0.046875 4.835938 0 4.703125 0 C 4.566406 0 4.453125 -0.046875 4.359375 -0.140625 C 4.273438 -0.234375 4.234375 -0.347656 4.234375 -0.484375 L 4.234375 -3.1875 C 4.234375 -3.582031 4.140625 -3.894531 3.953125 -4.125 C 3.773438 -4.363281 3.484375 -4.484375 3.078125 -4.484375 C 2.816406 -4.484375 2.578125 -4.421875 2.359375 -4.296875 C 2.140625 -4.179688 1.96875 -4.023438 1.84375 -3.828125 C 1.71875 -3.640625 1.65625 -3.425781 1.65625 -3.1875 L 1.65625 -0.484375 C 1.65625 -0.347656 1.609375 -0.234375 1.515625 -0.140625 C 1.429688 -0.046875 1.320312 0 1.1875 0 C 1.039062 0 0.921875 -0.0390625 0.828125 -0.125 C 0.742188 -0.21875 0.703125 -0.335938 0.703125 -0.484375 L 0.703125 -4.765625 C 0.703125 -4.890625 0.75 -5 0.84375 -5.09375 C 0.9375 -5.1875 1.050781 -5.234375 1.1875 -5.234375 C 1.320312 -5.234375 1.429688 -5.1875 1.515625 -5.09375 C 1.609375 -5 1.65625 -4.890625 1.65625 -4.765625 L 1.65625 -4.40625 C 1.832031 -4.675781 2.070312 -4.898438 2.375 -5.078125 C 2.6875 -5.265625 3.019531 -5.359375 3.375 -5.359375 Z M 3.375 -5.359375 "/></g></g></g><g fill="#000000" fill-opacity="1"><g transform="translate(215.28784, 213.53426)"><g><path d="M 5.3125 -2.8125 C 5.300781 -2.695312 5.25 -2.597656 5.15625 -2.515625 C 5.0625 -2.429688 4.953125 -2.390625 4.828125 -2.390625 L 1.3125 -2.390625 C 1.351562 -1.898438 1.535156 -1.507812 1.859375 -1.21875 C 2.179688 -0.925781 2.578125 -0.78125 3.046875 -0.78125 C 3.367188 -0.78125 3.628906 -0.828125 3.828125 -0.921875 C 4.023438 -1.015625 4.203125 -1.132812 4.359375 -1.28125 C 4.460938 -1.34375 4.5625 -1.375 4.65625 -1.375 C 4.757812 -1.375 4.847656 -1.332031 4.921875 -1.25 C 5.003906 -1.164062 5.046875 -1.070312 5.046875 -0.96875 C 5.046875 -0.832031 4.976562 -0.707031 4.84375 -0.59375 C 4.65625 -0.394531 4.398438 -0.226562 4.078125 -0.09375 C 3.753906 0.03125 3.425781 0.09375 3.09375 0.09375 C 2.5625 0.09375 2.085938 -0.015625 1.671875 -0.234375 C 1.265625 -0.460938 0.945312 -0.78125 0.71875 -1.1875 C 0.5 -1.59375 0.390625 -2.050781 0.390625 -2.5625 C 0.390625 -3.125 0.503906 -3.617188 0.734375 -4.046875 C 0.960938 -4.472656 1.265625 -4.796875 1.640625 -5.015625 C 2.015625 -5.242188 2.421875 -5.359375 2.859375 -5.359375 C 3.285156 -5.359375 3.6875 -5.25 4.0625 -5.03125 C 4.4375 -4.8125 4.734375 -4.507812 4.953125 -4.125 C 5.179688 -3.738281 5.300781 -3.300781 5.3125 -2.8125 Z M 2.859375 -4.484375 C 2.484375 -4.484375 2.160156 -4.375 1.890625 -4.15625 C 1.617188 -3.945312 1.4375 -3.625 1.34375 -3.1875 L 4.296875 -3.1875 L 4.296875 -3.265625 C 4.265625 -3.617188 4.109375 -3.910156 3.828125 -4.140625 C 3.546875 -4.367188 3.222656 -4.484375 2.859375 -4.484375 Z M 2.859375 -4.484375 "/></g></g></g><g fill="#000000" fill-opacity="1"><g transform="translate(226.075578, 213.53426)"><g><path d="M 3.3125 -5.359375 C 3.488281 -5.359375 3.640625 -5.3125 3.765625 -5.21875 C 3.890625 -5.132812 3.953125 -5.023438 3.953125 -4.890625 C 3.953125 -4.734375 3.910156 -4.613281 3.828125 -4.53125 C 3.742188 -4.445312 3.644531 -4.40625 3.53125 -4.40625 C 3.46875 -4.40625 3.378906 -4.421875 3.265625 -4.453125 C 3.117188 -4.503906 3.007812 -4.53125 2.9375 -4.53125 C 2.726562 -4.53125 2.523438 -4.457031 2.328125 -4.3125 C 2.128906 -4.164062 1.96875 -3.96875 1.84375 -3.71875 C 1.71875 -3.46875 1.65625 -3.191406 1.65625 -2.890625 L 1.65625 -0.484375 C 1.65625 -0.347656 1.609375 -0.234375 1.515625 -0.140625 C 1.429688 -0.046875 1.320312 0 1.1875 0 C 1.039062 0 0.921875 -0.0390625 0.828125 -0.125 C 0.742188 -0.21875 0.703125 -0.335938 0.703125 -0.484375 L 0.703125 -4.765625 C 0.703125 -4.890625 0.75 -5 0.84375 -5.09375 C 0.9375 -5.1875 1.050781 -5.234375 1.1875 -5.234375 C 1.320312 -5.234375 1.429688 -5.1875 1.515625 -5.09375 C 1.609375 -5 1.65625 -4.890625 1.65625 -4.765625 L 1.65625 -4.25 C 1.800781 -4.570312 2.019531 -4.832031 2.3125 -5.03125 C 2.613281 -5.238281 2.945312 -5.347656 3.3125 -5.359375 Z M 3.3125 -5.359375 "/></g></g></g></svg>